<svg width="73" height="23" viewBox="0 0 73 23" fill="none" xmlns="http://www.w3.org/2000/svg">
<rect width="73" height="23" rx="10" fill="white"/>
<path d="M25 8.02V9.15H22.09V10.94H24.32V12.05H22.09V15H20.69V8.02H25ZM28.4527 15.09C27.9194 15.09 27.4394 14.9733 27.0127 14.74C26.5861 14.5 26.2494 14.1633 26.0027 13.73C25.7627 13.2967 25.6427 12.7967 25.6427 12.23C25.6427 11.6633 25.7661 11.1633 26.0127 10.73C26.2661 10.2967 26.6094 9.96333 27.0427 9.73C27.4761 9.49 27.9594 9.37 28.4927 9.37C29.0261 9.37 29.5094 9.49 29.9427 9.73C30.3761 9.96333 30.7161 10.2967 30.9627 10.73C31.2161 11.1633 31.3427 11.6633 31.3427 12.23C31.3427 12.7967 31.2127 13.2967 30.9527 13.73C30.6994 14.1633 30.3527 14.5 29.9127 14.74C29.4794 14.9733 28.9927 15.09 28.4527 15.09ZM28.4527 13.87C28.7061 13.87 28.9427 13.81 29.1627 13.69C29.3894 13.5633 29.5694 13.3767 29.7027 13.13C29.8361 12.8833 29.9027 12.5833 29.9027 12.23C29.9027 11.7033 29.7627 11.3 29.4827 11.02C29.2094 10.7333 28.8727 10.59 28.4727 10.59C28.0727 10.59 27.7361 10.7333 27.4627 11.02C27.1961 11.3 27.0627 11.7033 27.0627 12.23C27.0627 12.7567 27.1927 13.1633 27.4527 13.45C27.7194 13.73 28.0527 13.87 28.4527 13.87ZM33.7697 7.6V15H32.3697V7.6H33.7697ZM36.5529 7.6V15H35.1529V7.6H36.5529ZM40.3961 15.09C39.8628 15.09 39.3828 14.9733 38.9561 14.74C38.5294 14.5 38.1928 14.1633 37.9461 13.73C37.7061 13.2967 37.5861 12.7967 37.5861 12.23C37.5861 11.6633 37.7094 11.1633 37.9561 10.73C38.2094 10.2967 38.5528 9.96333 38.9861 9.73C39.4194 9.49 39.9028 9.37 40.4361 9.37C40.9694 9.37 41.4528 9.49 41.8861 9.73C42.3194 9.96333 42.6594 10.2967 42.9061 10.73C43.1594 11.1633 43.2861 11.6633 43.2861 12.23C43.2861 12.7967 43.1561 13.2967 42.8961 13.73C42.6428 14.1633 42.2961 14.5 41.8561 14.74C41.4228 14.9733 40.9361 15.09 40.3961 15.09ZM40.3961 13.87C40.6494 13.87 40.8861 13.81 41.1061 13.69C41.3328 13.5633 41.5128 13.3767 41.6461 13.13C41.7794 12.8833 41.8461 12.5833 41.8461 12.23C41.8461 11.7033 41.7061 11.3 41.4261 11.02C41.1528 10.7333 40.8161 10.59 40.4161 10.59C40.0161 10.59 39.6794 10.7333 39.4061 11.02C39.1394 11.3 39.0061 11.7033 39.0061 12.23C39.0061 12.7567 39.1361 13.1633 39.3961 13.45C39.6628 13.73 39.9961 13.87 40.3961 13.87ZM51.993 9.46L50.373 15H48.863L47.853 11.13L46.843 15H45.323L43.693 9.46H45.113L46.093 13.68L47.153 9.46H48.633L49.673 13.67L50.653 9.46H51.993Z" fill="black"/>
</svg>
